<svg width="32" height="32" viewBox="0 0 32 32" fill="none" xmlns="http://www.w3.org/2000/svg">
<path opacity="0.4" d="M28.5701 10.4116V10.4137V21.587C28.5701 23.8645 27.8941 25.5923 26.7364 26.75C25.5787 27.9077 23.8509 28.5837 21.5734 28.5837H10.4134C8.13592 28.5837 6.40834 27.9077 5.25074 26.7487C4.09304 25.5895 3.41675 23.8584 3.41675 21.5737V10.4137C3.41675 8.13615 4.09272 6.40834 5.25041 5.25066C6.4081 4.09297 8.1359 3.41699 10.4134 3.41699H21.5868C23.8644 3.41699 25.5919 4.09303 26.7478 5.25032C27.9034 6.40746 28.5763 8.13456 28.5701 10.4116Z" fill="#121A15" stroke="#121A15" stroke-width="1.5"/>
<path d="M16.883 15.4701L16.3527 16.0005L16.883 16.5308L19.9496 19.5975C20.0434 19.6912 20.0434 19.8564 19.9497 19.9501L20.48 20.4805L19.9496 19.9501C19.8977 20.0021 19.8385 20.0238 19.7733 20.0238C19.7082 20.0238 19.6489 20.0021 19.597 19.9501L16.5303 16.8835L16 16.3531L15.4697 16.8835L12.403 19.9501L12.9333 20.4805L12.403 19.9501C12.351 20.0021 12.2918 20.0238 12.2266 20.0238C12.1615 20.0238 12.1022 20.0021 12.0503 19.9501L11.5213 20.4792L12.0503 19.9501C11.9565 19.8564 11.9565 19.6912 12.0503 19.5975L15.117 16.5308L15.6473 16.0005L15.117 15.4701L12.0503 12.4035C11.9565 12.3097 11.9565 12.1446 12.0503 12.0508C12.1441 11.957 12.3092 11.957 12.403 12.0508L15.4697 15.1175L16 15.6478L16.5303 15.1175L19.597 12.0508C19.6908 11.957 19.8559 11.957 19.9496 12.0508L20.48 11.5205L19.9497 12.0508C20.0434 12.1446 20.0434 12.3097 19.9497 12.4035L20.48 12.9338L19.9496 12.4035L16.883 15.4701Z" fill="#121A15" stroke="#121A15" stroke-width="1.5"/>
</svg>
