<svg width="24" height="24" viewBox="0 0 24 24" fill="green" xmlns="http://www.w3.org/2000/svg">
<path d="M12 12C9.24421 12 7 9.75579 7 7M12 12C14.7558 12 17 9.75579 17 7M12 12C14.7542 12 17 9.75421 17 7M12 12C9.24579 12 7 9.75421 7 7M7 7C7 4.24421 9.24421 2 12 2M7 7C7 4.24579 9.24579 2 12 2M17 7C17 4.24421 14.7558 2 12 2M17 7C17 4.24579 14.7542 2 12 2" fill="#121A15" stroke="#1B803D" stroke-width="1.5"/>
<path d="M12.0002 15C13.7517 15 15.3539 15.4224 16.6879 16.1368C15.3194 15.4124 13.6972 15 12.0002 15ZM12.0002 15C10.2486 15 8.6464 15.4224 7.31243 16.1368C8.68093 15.4124 10.3031 15 12.0002 15Z" fill="#121A15" stroke="#1B803D" stroke-width="1.5"/>
</svg>
