<svg width="188" height="48" viewBox="0 0 188 48" fill="none" xmlns="http://www.w3.org/2000/svg">
<path d="M109.754 32.684C109.647 32.684 109.594 32.6307 109.594 32.524V31.596C109.594 31.4893 109.647 31.436 109.754 31.436H110.122C110.986 31.436 111.418 30.9827 111.418 30.076V23.116C111.418 23.0093 111.471 22.956 111.578 22.956H112.602C112.708 22.956 112.762 23.0093 112.762 23.116V27.164C112.762 27.5267 112.89 27.7987 113.146 27.98C113.412 28.1613 113.764 28.252 114.202 28.252H114.378C114.591 28.252 114.751 28.3 114.858 28.396C114.964 28.4813 115.018 28.6307 115.018 28.844C115.018 29.1213 114.964 29.3027 114.858 29.388C114.762 29.4627 114.602 29.5 114.378 29.5H114.042C113.487 29.5 113.06 29.3293 112.762 28.988V30.044C112.762 30.908 112.543 31.564 112.106 32.012C111.668 32.46 111.028 32.684 110.186 32.684H109.754ZM114.375 29.5C114.162 29.5 114.002 29.4627 113.895 29.388C113.788 29.3133 113.735 29.164 113.735 28.94C113.735 28.6733 113.788 28.492 113.895 28.396C113.991 28.3 114.151 28.252 114.375 28.252H115.479C115.746 28.252 115.938 28.1933 116.055 28.076C116.183 27.948 116.247 27.724 116.247 27.404V23.116C116.247 23.0093 116.3 22.956 116.407 22.956H117.431C117.538 22.956 117.591 23.0093 117.591 23.116V27.484C117.591 28.1773 117.447 28.6893 117.159 29.02C116.871 29.34 116.391 29.5 115.719 29.5H114.375ZM117.015 32.476C116.908 32.476 116.855 32.4227 116.855 32.316V31.148C116.855 31.0413 116.908 30.988 117.015 30.988H118.103C118.21 30.988 118.263 31.0413 118.263 31.148V32.316C118.263 32.4227 118.21 32.476 118.103 32.476H117.015ZM115.063 32.476C114.956 32.476 114.903 32.4227 114.903 32.316V31.148C114.903 31.0413 114.956 30.988 115.063 30.988H116.151C116.258 30.988 116.311 31.0413 116.311 31.148V32.316C116.311 32.4227 116.258 32.476 116.151 32.476H115.063ZM118.957 32.684C118.85 32.684 118.797 32.6307 118.797 32.524V31.596C118.797 31.4893 118.85 31.436 118.957 31.436H119.325C120.189 31.436 120.621 30.9827 120.621 30.076V23.116C120.621 23.0093 120.674 22.956 120.781 22.956H121.805C121.912 22.956 121.965 23.0093 121.965 23.116V30.044C121.965 30.908 121.746 31.564 121.309 32.012C120.872 32.46 120.232 32.684 119.389 32.684H118.957ZM124.12 18.78C124.12 18.6733 124.173 18.62 124.28 18.62H125.304C125.411 18.62 125.464 18.6733 125.464 18.78V27.404C125.464 27.724 125.523 27.948 125.64 28.076C125.768 28.1933 125.965 28.252 126.232 28.252H126.936C127.363 28.252 127.576 28.4653 127.576 28.892C127.576 29.1587 127.523 29.3293 127.416 29.404C127.32 29.468 127.16 29.5 126.936 29.5H125.992C125.32 29.5 124.84 29.34 124.552 29.02C124.264 28.6893 124.12 28.1773 124.12 27.484V18.78ZM131.049 22.668C131.594 22.668 132.063 22.7427 132.458 22.892C132.852 23.0307 133.178 23.228 133.434 23.484C133.7 23.74 133.898 24.0493 134.026 24.412C134.154 24.764 134.218 25.1533 134.218 25.58C134.218 26.124 134.09 26.6307 133.834 27.1C133.588 27.5693 133.242 27.9587 132.794 28.268C132.847 28.2573 132.927 28.252 133.034 28.252H135.258C135.471 28.252 135.631 28.2893 135.738 28.364C135.844 28.4387 135.898 28.588 135.898 28.812C135.898 29.0787 135.844 29.26 135.738 29.356C135.642 29.452 135.482 29.5 135.258 29.5H133.13C132.746 29.5 132.383 29.484 132.042 29.452C131.7 29.42 131.375 29.308 131.066 29.116C130.714 29.308 130.335 29.42 129.93 29.452C129.535 29.484 129.183 29.5 128.874 29.5H126.938C126.511 29.5 126.297 29.2867 126.297 28.86C126.297 28.5933 126.351 28.428 126.457 28.364C126.553 28.2893 126.713 28.252 126.938 28.252H129.289C128.852 27.9427 128.506 27.5587 128.25 27.1C128.004 26.6307 127.882 26.124 127.882 25.58C127.882 25.1533 127.946 24.764 128.074 24.412C128.202 24.0493 128.394 23.74 128.65 23.484C128.916 23.228 129.247 23.0307 129.642 22.892C130.036 22.7427 130.506 22.668 131.049 22.668ZM131.049 23.916C130.538 23.916 130.116 24.0653 129.786 24.364C129.455 24.6627 129.289 25.0947 129.289 25.66C129.289 26.236 129.46 26.7213 129.802 27.116C130.143 27.5 130.559 27.788 131.049 27.98C131.54 27.788 131.956 27.5 132.298 27.116C132.639 26.7213 132.81 26.236 132.81 25.66C132.81 25.0947 132.644 24.6627 132.314 24.364C131.983 24.0653 131.562 23.916 131.049 23.916ZM131.482 21.372C131.375 21.372 131.322 21.3187 131.322 21.212V20.044C131.322 19.9373 131.375 19.884 131.482 19.884H132.57C132.676 19.884 132.73 19.9373 132.73 20.044V21.212C132.73 21.3187 132.676 21.372 132.57 21.372H131.482ZM129.53 21.372C129.423 21.372 129.37 21.3187 129.37 21.212V20.044C129.37 19.9373 129.423 19.884 129.53 19.884H130.618C130.724 19.884 130.778 19.9373 130.778 20.044V21.212C130.778 21.3187 130.724 21.372 130.618 21.372H129.53ZM135.362 29.5C135.149 29.5 134.989 29.4627 134.882 29.388C134.775 29.3133 134.722 29.164 134.722 28.94C134.722 28.6733 134.775 28.492 134.882 28.396C134.978 28.3 135.138 28.252 135.362 28.252H136.45C136.717 28.252 136.909 28.1933 137.026 28.076C137.154 27.948 137.218 27.724 137.218 27.404V23.116C137.218 23.0093 137.271 22.956 137.378 22.956H138.402C138.509 22.956 138.562 23.0093 138.562 23.116V27.164C138.562 27.5267 138.69 27.7987 138.946 27.98C139.213 28.1613 139.565 28.252 140.002 28.252H140.194C140.407 28.252 140.567 28.3 140.674 28.396C140.781 28.4813 140.834 28.6307 140.834 28.844C140.834 29.1213 140.781 29.3027 140.674 29.388C140.578 29.4627 140.418 29.5 140.194 29.5H139.842C139.501 29.5 139.202 29.4307 138.946 29.292C138.69 29.1533 138.493 28.9453 138.354 28.668C138.087 29.2227 137.533 29.5 136.69 29.5H135.362ZM138.29 21.372C138.183 21.372 138.13 21.3187 138.13 21.212V20.044C138.13 19.9373 138.183 19.884 138.29 19.884H139.378C139.485 19.884 139.538 19.9373 139.538 20.044V21.212C139.538 21.3187 139.485 21.372 139.378 21.372H138.29ZM136.338 21.372C136.231 21.372 136.178 21.3187 136.178 21.212V20.044C136.178 19.9373 136.231 19.884 136.338 19.884H137.426C137.533 19.884 137.586 19.9373 137.586 20.044V21.212C137.586 21.3187 137.533 21.372 137.426 21.372H136.338ZM140.188 29.5C139.974 29.5 139.814 29.4627 139.707 29.388C139.601 29.3133 139.547 29.164 139.547 28.94C139.547 28.6733 139.601 28.492 139.707 28.396C139.803 28.3 139.963 28.252 140.188 28.252H141.196C141.462 28.252 141.654 28.1933 141.772 28.076C141.9 27.948 141.964 27.724 141.964 27.404V18.78C141.964 18.6733 142.017 18.62 142.124 18.62H143.148C143.254 18.62 143.308 18.6733 143.308 18.78V27.484C143.308 28.1773 143.164 28.6893 142.876 29.02C142.588 29.34 142.108 29.5 141.436 29.5H140.188ZM146.886 29.34C146.886 29.4467 146.833 29.5 146.726 29.5H145.702C145.595 29.5 145.542 29.4467 145.542 29.34V18.78C145.542 18.6733 145.595 18.62 145.702 18.62H146.726C146.833 18.62 146.886 18.6733 146.886 18.78V29.34Z" fill="#121A15"/>
<mask id="path-3-inside-1_121_110" fill="white">
<path d="M158.88 30.9001C158.47 30.9001 158.13 30.5601 158.13 30.1501V28.0801C158.13 27.6701 158.47 27.3301 158.88 27.3301C159.29 27.3301 159.63 27.6701 159.63 28.0801V30.1501C159.63 30.5701 159.29 30.9001 158.88 30.9001Z"/>
</mask>
<path d="M158.88 30.9001C158.47 30.9001 158.13 30.5601 158.13 30.1501V28.0801C158.13 27.6701 158.47 27.3301 158.88 27.3301C159.29 27.3301 159.63 27.6701 159.63 28.0801V30.1501C159.63 30.5701 159.29 30.9001 158.88 30.9001Z" fill="#121A15"/>
<path d="M158.88 29.4001C159.298 29.4001 159.63 29.7317 159.63 30.1501H156.63C156.63 31.3885 157.641 32.4001 158.88 32.4001V29.4001ZM159.63 30.1501V28.0801H156.63V30.1501H159.63ZM159.63 28.0801C159.63 28.4985 159.298 28.8301 158.88 28.8301V25.8301C157.641 25.8301 156.63 26.8417 156.63 28.0801H159.63ZM158.88 28.8301C158.461 28.8301 158.13 28.4985 158.13 28.0801H161.13C161.13 26.8417 160.118 25.8301 158.88 25.8301V28.8301ZM158.13 28.0801V30.1501H161.13V28.0801H158.13ZM158.13 30.1501C158.13 29.7286 158.475 29.4001 158.88 29.4001V32.4001C160.105 32.4001 161.13 31.4115 161.13 30.1501H158.13Z" fill="#121A15" mask="url(#path-3-inside-1_121_110)"/>
<mask id="path-5-inside-2_121_110" fill="white">
<path d="M164 30.9C163.59 30.9 163.25 30.56 163.25 30.15V26C163.25 25.59 163.59 25.25 164 25.25C164.41 25.25 164.75 25.59 164.75 26V30.15C164.75 30.57 164.41 30.9 164 30.9Z"/>
</mask>
<path d="M164 30.9C163.59 30.9 163.25 30.56 163.25 30.15V26C163.25 25.59 163.59 25.25 164 25.25C164.41 25.25 164.75 25.59 164.75 26V30.15C164.75 30.57 164.41 30.9 164 30.9Z" fill="#121A15"/>
<path d="M164 29.4C164.418 29.4 164.75 29.7316 164.75 30.15H161.75C161.75 31.3884 162.762 32.4 164 32.4V29.4ZM164.75 30.15V26H161.75V30.15H164.75ZM164.75 26C164.75 26.4184 164.418 26.75 164 26.75V23.75C162.762 23.75 161.75 24.7616 161.75 26H164.75ZM164 26.75C163.582 26.75 163.25 26.4184 163.25 26H166.25C166.25 24.7616 165.238 23.75 164 23.75V26.75ZM163.25 26V30.15H166.25V26H163.25ZM163.25 30.15C163.25 29.7286 163.595 29.4 164 29.4V32.4C165.225 32.4 166.25 31.4114 166.25 30.15H163.25Z" fill="#121A15" mask="url(#path-5-inside-2_121_110)"/>
<path d="M169.12 30.8999C168.71 30.8999 168.37 30.5599 168.37 30.1499V23.9299C168.37 23.5199 168.71 23.1799 169.12 23.1799C169.53 23.1799 169.87 23.5199 169.87 23.9299V30.1499C169.87 30.5699 169.54 30.8999 169.12 30.8999Z" fill="#121A15"/>
<path d="M158.88 25.1799C158.54 25.1799 158.24 24.9499 158.15 24.6099C158.05 24.2099 158.29 23.7999 158.7 23.6999C162.38 22.7799 165.62 20.7699 168.09 17.8999L168.55 17.3599C168.82 17.0499 169.29 17.0099 169.61 17.2799C169.92 17.5499 169.96 18.0199 169.69 18.3399L169.23 18.8799C166.56 21.9999 163.04 24.1699 159.06 25.1599C159 25.1799 158.94 25.1799 158.88 25.1799Z" fill="#121A15"/>
<path d="M169.12 21.5201C168.71 21.5201 168.37 21.1801 168.37 20.7701V18.6001H166.19C165.78 18.6001 165.44 18.2601 165.44 17.8501C165.44 17.4401 165.78 17.1001 166.19 17.1001H169.12C169.53 17.1001 169.87 17.4401 169.87 17.8501V20.7801C169.87 21.1901 169.54 21.5201 169.12 21.5201Z" fill="#121A15"/>
<path d="M167 34.75H161C155.57 34.75 153.25 32.43 153.25 27V21C153.25 15.57 155.57 13.25 161 13.25H167C172.43 13.25 174.75 15.57 174.75 21V27C174.75 32.43 172.43 34.75 167 34.75ZM161 14.75C156.39 14.75 154.75 16.39 154.75 21V27C154.75 31.61 156.39 33.25 161 33.25H167C171.61 33.25 173.25 31.61 173.25 27V21C173.25 16.39 171.61 14.75 167 14.75H161Z" fill="#121A15"/>
</svg>
