<svg width="21" height="20" viewBox="0 0 21 20" fill="none" xmlns="http://www.w3.org/2000/svg">
<g id="vuesax/outline/broom">
<g id="broom">
<g id="Vector">
<mask id="path-1-inside-1_2245_11278" fill="white">
<path d="M5.87497 7.08339C5.82497 7.08339 5.77498 7.07504 5.72498 7.06671C5.56665 7.02504 5.42497 6.92507 5.34164 6.7834L4.04164 4.65007C3.72498 4.1334 3.62497 3.51672 3.77497 2.91672C3.91664 2.32506 4.28331 1.81671 4.80831 1.50005C5.32497 1.18338 5.94164 1.08337 6.54164 1.23337C7.14164 1.37504 7.64164 1.7417 7.95831 2.2667L9.25831 4.40008C9.44164 4.69175 9.34164 5.07506 9.04997 5.25839L6.19997 6.99174C6.09997 7.05007 5.99164 7.08339 5.87497 7.08339ZM5.99164 2.41674C5.79997 2.41674 5.61664 2.46674 5.45831 2.56674C5.22497 2.7084 5.05831 2.9417 4.99164 3.20837C4.92498 3.48337 4.96664 3.75837 5.10831 3.99171L6.08331 5.59174L7.86664 4.50837L6.89164 2.90838C6.74997 2.67505 6.51664 2.50838 6.24997 2.44172C6.1583 2.42505 6.07497 2.41674 5.99164 2.41674Z"/>
</mask>
<path d="M5.87497 7.08339C5.82497 7.08339 5.77498 7.07504 5.72498 7.06671C5.56665 7.02504 5.42497 6.92507 5.34164 6.7834L4.04164 4.65007C3.72498 4.1334 3.62497 3.51672 3.77497 2.91672C3.91664 2.32506 4.28331 1.81671 4.80831 1.50005C5.32497 1.18338 5.94164 1.08337 6.54164 1.23337C7.14164 1.37504 7.64164 1.7417 7.95831 2.2667L9.25831 4.40008C9.44164 4.69175 9.34164 5.07506 9.04997 5.25839L6.19997 6.99174C6.09997 7.05007 5.99164 7.08339 5.87497 7.08339ZM5.99164 2.41674C5.79997 2.41674 5.61664 2.46674 5.45831 2.56674C5.22497 2.7084 5.05831 2.9417 4.99164 3.20837C4.92498 3.48337 4.96664 3.75837 5.10831 3.99171L6.08331 5.59174L7.86664 4.50837L6.89164 2.90838C6.74997 2.67505 6.51664 2.50838 6.24997 2.44172C6.1583 2.42505 6.07497 2.41674 5.99164 2.41674Z" fill="#24AD53"/>
<path d="M5.72498 7.06671L5.34324 8.51732L5.41014 8.53493L5.47838 8.5463L5.72498 7.06671ZM5.34164 6.7834L6.63454 6.02287L6.62862 6.01281L6.62255 6.00285L5.34164 6.7834ZM4.04164 4.65007L5.32256 3.86951L5.32054 3.86623L4.04164 4.65007ZM3.77497 2.91672L5.23018 3.28053L5.232 3.27328L5.23374 3.26601L3.77497 2.91672ZM4.80831 1.50005L5.58307 2.78452L5.59215 2.77895L4.80831 1.50005ZM6.54164 1.23337L6.17784 2.68859L6.18738 2.69097L6.19695 2.69323L6.54164 1.23337ZM7.95831 2.2667L6.67386 3.04145L6.67739 3.04724L7.95831 2.2667ZM9.25831 4.40008L7.97739 5.18062L7.98281 5.18952L7.98835 5.19834L9.25831 4.40008ZM9.04997 5.25839L9.82942 6.53997L9.83887 6.53423L9.84823 6.52834L9.04997 5.25839ZM6.19997 6.99174L6.95578 8.2874L6.96767 8.28047L6.97942 8.27332L6.19997 6.99174ZM5.45831 2.56674L6.23677 3.84892L6.2481 3.84204L6.2593 3.83497L5.45831 2.56674ZM4.99164 3.20837L3.53639 2.84456L3.53387 2.85497L4.99164 3.20837ZM5.10831 3.99171L3.82613 4.77017L3.82739 4.77225L5.10831 3.99171ZM6.08331 5.59174L4.80239 6.37228L5.58187 7.65146L6.86211 6.87372L6.08331 5.59174ZM7.86664 4.50837L8.64544 5.79035L9.92918 5.01048L9.14755 3.72781L7.86664 4.50837ZM6.89164 2.90838L5.60946 3.68685L5.61073 3.68894L6.89164 2.90838ZM6.24997 2.44172L6.61377 0.986504L6.56637 0.974653L6.5183 0.965913L6.24997 2.44172ZM5.87497 5.58339C5.93178 5.58339 5.97246 5.58806 5.98628 5.58979C5.99368 5.59071 5.99718 5.5913 5.99423 5.59084C5.99044 5.59025 5.98545 5.58943 5.97158 5.58712L5.47838 8.5463C5.50582 8.55087 5.67952 8.58339 5.87497 8.58339V5.58339ZM6.10672 5.6161C6.29368 5.6653 6.49824 5.79117 6.63454 6.02287L4.04874 7.54393C4.3517 8.05897 4.83961 8.38479 5.34324 8.51732L6.10672 5.6161ZM6.62255 6.00285L5.32255 3.86952L2.76073 5.43063L4.06073 7.56396L6.62255 6.00285ZM5.32054 3.86623C5.21166 3.68858 5.17909 3.4849 5.23018 3.28053L2.31976 2.55292C2.07085 3.54855 2.23829 4.57823 2.76274 5.43391L5.32054 3.86623ZM5.23374 3.26601C5.28323 3.0593 5.40716 2.89057 5.58305 2.78448L4.03357 0.21561C3.15945 0.742854 2.55004 1.59081 2.3162 2.56744L5.23374 3.26601ZM5.59215 2.77895C5.7698 2.67007 5.97347 2.6375 6.17784 2.68859L6.90545 -0.22184C5.90981 -0.470748 4.88015 -0.303304 4.02446 0.221145L5.59215 2.77895ZM6.19695 2.69323C6.40242 2.74175 6.56456 2.86022 6.67387 3.04144L9.24274 1.49196C8.71872 0.623181 7.88087 0.00833642 6.88633 -0.226485L6.19695 2.69323ZM6.67739 3.04724L7.97739 5.18062L10.5392 3.61954L9.23923 1.48616L6.67739 3.04724ZM7.98835 5.19834C7.70224 4.74316 7.88836 4.21683 8.25171 3.98843L9.84823 6.52834C10.7949 5.93328 11.181 4.64034 10.5283 3.60182L7.98835 5.19834ZM8.27052 3.9768L5.42052 5.71015L6.97942 8.27332L9.82942 6.53997L8.27052 3.9768ZM5.44417 5.69607C5.54267 5.63861 5.69243 5.58339 5.87497 5.58339V8.58339C6.29085 8.58339 6.65728 8.46153 6.95578 8.2874L5.44417 5.69607ZM5.99164 0.916744C5.5366 0.916744 5.07187 1.03668 4.65732 1.2985L6.2593 3.83497C6.16141 3.8968 6.06334 3.91674 5.99164 3.91674V0.916744ZM4.67984 1.28456C4.09323 1.64071 3.69442 2.2126 3.53643 2.84457L6.44686 3.57217C6.4222 3.6708 6.35672 3.7761 6.23677 3.84892L4.67984 1.28456ZM3.53387 2.85497C3.37648 3.50419 3.47248 4.1877 3.82613 4.77017L6.39049 3.21324C6.4225 3.26595 6.4455 3.32792 6.45534 3.39373C6.46515 3.45927 6.46024 3.51714 6.44942 3.56177L3.53387 2.85497ZM3.82739 4.77225L4.80239 6.37228L7.36423 4.8112L6.38923 3.21116L3.82739 4.77225ZM6.86211 6.87372L8.64544 5.79035L7.08784 3.22639L5.30451 4.30976L6.86211 6.87372ZM9.14755 3.72781L8.17255 2.12782L5.61073 3.68894L6.58573 5.28893L9.14755 3.72781ZM8.17382 2.12992C7.81762 1.54323 7.24565 1.14447 6.61377 0.986504L5.88617 3.89693C5.78763 3.8723 5.68233 3.80687 5.60946 3.68685L8.17382 2.12992ZM6.5183 0.965913C6.35283 0.935828 6.17879 0.916744 5.99164 0.916744V3.91674C5.9828 3.91674 5.97591 3.91627 5.97226 3.91592C5.96898 3.9156 5.97149 3.91568 5.98164 3.91752L6.5183 0.965913Z" fill="#24AD53" mask="url(#path-1-inside-1_2245_11278)"/>
</g>
<g id="Vector_2">
<mask id="path-3-inside-2_2245_11278" fill="white">
<path d="M10.0168 18.8417C9.76678 18.8417 9.51678 18.8084 9.27512 18.7334C8.54178 18.5167 7.95012 18.0167 7.60845 17.3084L5.90011 13.8251C4.99178 11.9751 5.63346 9.77506 7.39179 8.70006L10.0251 7.10007C11.7834 6.02507 14.0418 6.46672 15.2668 8.12506L17.5751 11.2417C18.0418 11.875 18.2168 12.6334 18.0751 13.375C17.9334 14.1167 17.4835 14.7584 16.8085 15.1667L11.4501 18.425C11.0001 18.7 10.5085 18.8417 10.0168 18.8417ZM12.0834 7.76673C11.6001 7.76673 11.1168 7.90005 10.6668 8.16671L8.03345 9.7667C6.82511 10.5 6.39178 12.0084 7.00845 13.2751L8.71679 16.7584C8.90845 17.1417 9.22512 17.4167 9.61679 17.5334C10.0085 17.65 10.4251 17.5834 10.7834 17.3667L16.1418 14.1084C16.5085 13.8834 16.7501 13.5417 16.8335 13.1417C16.9085 12.7417 16.8168 12.3334 16.5585 11.9917L14.2501 8.87508C13.7251 8.15008 12.9168 7.76673 12.0834 7.76673Z"/>
</mask>
<path d="M10.0168 18.8417C9.76678 18.8417 9.51678 18.8084 9.27512 18.7334C8.54178 18.5167 7.95012 18.0167 7.60845 17.3084L5.90011 13.8251C4.99178 11.9751 5.63346 9.77506 7.39179 8.70006L10.0251 7.10007C11.7834 6.02507 14.0418 6.46672 15.2668 8.12506L17.5751 11.2417C18.0418 11.875 18.2168 12.6334 18.0751 13.375C17.9334 14.1167 17.4835 14.7584 16.8085 15.1667L11.4501 18.425C11.0001 18.7 10.5085 18.8417 10.0168 18.8417ZM12.0834 7.76673C11.6001 7.76673 11.1168 7.90005 10.6668 8.16671L8.03345 9.7667C6.82511 10.5 6.39178 12.0084 7.00845 13.2751L8.71679 16.7584C8.90845 17.1417 9.22512 17.4167 9.61679 17.5334C10.0085 17.65 10.4251 17.5834 10.7834 17.3667L16.1418 14.1084C16.5085 13.8834 16.7501 13.5417 16.8335 13.1417C16.9085 12.7417 16.8168 12.3334 16.5585 11.9917L14.2501 8.87508C13.7251 8.15008 12.9168 7.76673 12.0834 7.76673Z" fill="#24AD53"/>
<path d="M9.27512 18.7334L9.71972 17.3008L9.70995 17.2977L9.70014 17.2948L9.27512 18.7334ZM7.60845 17.3084L8.95952 16.6567L8.95521 16.6479L7.60845 17.3084ZM5.90011 13.8251L7.24687 13.1646L7.24657 13.164L5.90011 13.8251ZM7.39179 8.70006L6.6129 7.41813L6.60937 7.42029L7.39179 8.70006ZM10.0251 7.10007L10.804 8.382L10.8075 8.37985L10.0251 7.10007ZM15.2668 8.12506L14.0603 9.0163L14.0614 9.01782L15.2668 8.12506ZM17.5751 11.2417L18.7827 10.3519L18.7805 10.3489L17.5751 11.2417ZM16.8085 15.1667L16.0321 13.8833L16.0291 13.8851L16.8085 15.1667ZM11.4501 18.425L10.6708 17.1434L10.6679 17.1451L11.4501 18.425ZM10.6668 8.16671L9.90208 6.87628L9.89496 6.88049L9.8879 6.88479L10.6668 8.16671ZM8.03345 9.7667L8.81168 11.049L8.81233 11.0486L8.03345 9.7667ZM7.00845 13.2751L5.65978 13.9316L5.66169 13.9355L7.00845 13.2751ZM8.71679 16.7584L7.36999 17.4189L7.37514 17.4292L8.71679 16.7584ZM10.7834 17.3667L11.5596 18.6503L11.5628 18.6484L10.7834 17.3667ZM16.1418 14.1084L16.9212 15.39L16.9263 15.3869L16.1418 14.1084ZM16.8335 13.1417L18.3019 13.4477L18.305 13.433L18.3078 13.4182L16.8335 13.1417ZM16.5585 11.9917L15.3531 12.8845L15.3575 12.8905L15.362 12.8964L16.5585 11.9917ZM14.2501 8.87508L13.0352 9.75484L13.0399 9.76137L13.0447 9.76784L14.2501 8.87508ZM10.0168 17.3417C9.89973 17.3417 9.80135 17.3261 9.71972 17.3008L8.83052 20.166C9.23222 20.2906 9.63383 20.3417 10.0168 20.3417V17.3417ZM9.70014 17.2948C9.37589 17.199 9.11877 16.9869 8.95949 16.6567L6.25741 17.9601C6.78146 19.0465 7.70768 19.8344 8.8501 20.1719L9.70014 17.2948ZM8.95521 16.6479L7.24687 13.1646L4.55336 14.4856L6.2617 17.9689L8.95521 16.6479ZM7.24657 13.164C6.68043 12.0109 7.07562 10.6515 8.17421 9.97983L6.60937 7.42029C4.19129 8.89864 3.30313 11.9392 4.55366 14.4862L7.24657 13.164ZM8.17068 9.98198L10.804 8.382L9.24622 5.81815L6.6129 7.41813L8.17068 9.98198ZM10.8075 8.37985C11.9019 7.71075 13.297 7.98302 14.0603 9.0163L16.4733 7.23381C14.7866 4.95043 11.6649 4.33939 9.24269 5.8203L10.8075 8.37985ZM14.0614 9.01782L16.3697 12.1345L18.7805 10.3489L16.4722 7.23229L14.0614 9.01782ZM16.3675 12.1315C16.5944 12.4394 16.6625 12.7755 16.6018 13.0936L19.5485 13.6565C19.771 12.4913 19.4892 11.3107 18.7827 10.3519L16.3675 12.1315ZM16.6018 13.0936C16.5426 13.4034 16.3557 13.6875 16.0321 13.8833L17.5849 16.4502C18.6112 15.8293 19.3243 14.83 19.5485 13.6565L16.6018 13.0936ZM16.0291 13.8851L10.6708 17.1434L12.2295 19.7067L17.5878 16.4484L16.0291 13.8851ZM10.6679 17.1451C10.439 17.285 10.216 17.3417 10.0168 17.3417V20.3417C10.8009 20.3417 11.5612 20.1151 12.2323 19.705L10.6679 17.1451ZM12.0834 6.26673C11.3184 6.26673 10.5724 6.47902 9.90208 6.87628L11.4315 9.45715C11.6611 9.32107 11.8818 9.26673 12.0834 9.26673V6.26673ZM9.8879 6.88479L7.25456 8.48477L8.81233 11.0486L11.4457 9.44864L9.8879 6.88479ZM7.25521 8.48438C5.37706 9.62422 4.7078 11.9762 5.65979 13.9316L8.35711 12.6185C8.07576 12.0406 8.27317 11.3758 8.81168 11.049L7.25521 8.48438ZM5.66169 13.9355L7.37003 17.4189L10.0635 16.0979L8.35521 12.6146L5.66169 13.9355ZM7.37514 17.4292C7.7387 18.1563 8.37145 18.7276 9.18857 18.971L10.045 16.0958C10.0489 16.097 10.0541 16.099 10.0597 16.1021C10.0652 16.1051 10.0693 16.1081 10.0718 16.1103C10.0742 16.1124 10.074 16.1126 10.0717 16.1097C10.0694 16.1066 10.0645 16.0997 10.0584 16.0876L7.37514 17.4292ZM9.18857 18.971C10.0246 19.22 10.876 19.0637 11.5596 18.6503L10.0073 16.0831C9.98998 16.0936 9.98464 16.0925 9.994 16.0911C9.99864 16.0904 10.006 16.0898 10.0156 16.0905C10.0253 16.0911 10.0354 16.0929 10.045 16.0958L9.18857 18.971ZM11.5628 18.6484L16.9211 15.39L15.3624 12.8267L10.0041 16.0851L11.5628 18.6484ZM16.9263 15.3869C17.6325 14.9535 18.1313 14.2665 18.3019 13.4477L15.365 12.8358C15.365 12.8358 15.365 12.8356 15.3651 12.8353C15.3652 12.835 15.3653 12.8345 15.3655 12.8339C15.3659 12.8327 15.3665 12.8311 15.3672 12.8294C15.3689 12.8256 15.3709 12.8222 15.3728 12.8195C15.3746 12.8169 15.3754 12.8165 15.3738 12.818C15.3722 12.8195 15.3672 12.8238 15.3573 12.8299L16.9263 15.3869ZM18.3078 13.4182C18.4607 12.6028 18.268 11.7656 17.7549 11.0871L15.362 12.8964C15.3654 12.901 15.3658 12.9024 15.3648 12.9002C15.3638 12.8981 15.3621 12.894 15.3608 12.8884C15.3595 12.8828 15.3589 12.8774 15.3588 12.8726C15.3587 12.8704 15.3588 12.8685 15.3589 12.8672C15.359 12.8659 15.3592 12.8652 15.3591 12.8653L18.3078 13.4182ZM17.7638 11.099L15.4555 7.98231L13.0447 9.76784L15.3531 12.8845L17.7638 11.099ZM15.465 7.99531C14.6484 6.86764 13.3814 6.26673 12.0834 6.26673V9.26673C12.4522 9.26673 12.8018 9.43251 13.0352 9.75484L15.465 7.99531Z" fill="#24AD53" mask="url(#path-3-inside-2_2245_11278)"/>
</g>
<path id="Vector_3" d="M6.90002 10.3583C6.85002 10.3583 6.80002 10.3499 6.75002 10.3416C6.59169 10.2999 6.45002 10.1999 6.36669 10.0583L4.63336 7.20828C4.45003 6.91662 4.55003 6.53326 4.8417 6.34993L9.10836 3.74993C9.40003 3.57493 9.79169 3.6666 9.96669 3.95826L11.7 6.80825C11.7834 6.94992 11.8167 7.11659 11.775 7.28326C11.7334 7.44159 11.6334 7.58327 11.4917 7.66661L7.22503 10.2666C7.12503 10.3333 7.00835 10.3583 6.90002 10.3583ZM6.02503 7.09995L7.10835 8.88324L10.3084 6.93327L9.22503 5.14993L6.02503 7.09995Z" fill="#24AD53"/>
<path id="Vector_4" d="M13.8 16.8917C13.5917 16.8917 13.3833 16.7833 13.2667 16.5916L11.8917 14.3333C11.7083 14.0417 11.8083 13.6583 12.1 13.475C12.3917 13.3 12.7833 13.3916 12.9583 13.6833L14.3333 15.9417C14.5167 16.2333 14.4167 16.6166 14.125 16.8C14.025 16.8583 13.9083 16.8917 13.8 16.8917Z" fill="#24AD53"/>
<path id="Vector_5" d="M11.6667 18.1916C11.4584 18.1916 11.25 18.0832 11.1334 17.8916L9.75836 15.6333C9.57503 15.3416 9.67503 14.9583 9.9667 14.7749C10.2584 14.5999 10.65 14.6916 10.825 14.9833L12.2 17.2416C12.3834 17.5333 12.2834 17.9166 11.9917 18.0999C11.8917 18.1582 11.775 18.1916 11.6667 18.1916Z" fill="#24AD53"/>
<path id="Vector_6" d="M15.9333 15.5917C15.725 15.5917 15.5166 15.4834 15.4 15.2917L14.025 13.0334C13.8416 12.7417 13.9416 12.3584 14.2333 12.175C14.525 12 14.9166 12.0917 15.0916 12.3834L16.4666 14.6417C16.65 14.9334 16.55 15.3167 16.2583 15.5C16.1583 15.5584 16.05 15.5917 15.9333 15.5917Z" fill="#24AD53"/>
</g>
</g>
</svg>
