<svg width="24" height="24" viewBox="0 0 24 24" fill="none" xmlns="http://www.w3.org/2000/svg">
<g id="vuesax/outline/clock">
<g id="clock">
<path id="Vector" d="M12 22C6.48421 22 2 17.5158 2 12M12 22C17.5158 22 22 17.5158 22 12M12 22C17.5142 22 22 17.5142 22 12M12 22C6.48579 22 2 17.5142 2 12M2 12C2 6.48421 6.48421 2 12 2M2 12C2 6.48579 6.48579 2 12 2M22 12C22 6.48421 17.5158 2 12 2M22 12C22 6.48579 17.5142 2 12 2" fill="#121A15" stroke="#121A15" stroke-width="1.5"/>
<path id="Vector_2" d="M15.7142 15.1749C15.714 15.1751 15.7138 15.1753 15.7135 15.1755L12.6146 13.3262C12.1595 13.0542 11.7824 12.4724 11.6725 11.9222C11.7218 12.1674 11.8213 12.3977 11.9268 12.5833C12.0751 12.844 12.3079 13.1438 12.6188 13.3259L15.7153 15.1738C15.7149 15.1742 15.7146 15.1746 15.7142 15.1749Z" fill="#121A15" stroke="#121A15" stroke-width="1.5"/>
</g>
</g>
</svg>
