<svg width="98" height="22" viewBox="0 0 98 22" fill="none" xmlns="http://www.w3.org/2000/svg">
<path d="M0.873017 20.8271C0.680328 20.8271 0.583984 20.7308 0.583984 20.5381V1.46195C0.583984 1.26926 0.680328 1.17292 0.873017 1.17292H8.50347C9.56325 1.17292 10.5171 1.32707 11.3649 1.63537C12.2127 1.94367 12.9353 2.37722 13.5326 2.93601C14.13 3.49481 14.5828 4.15958 14.8911 4.93034C15.1994 5.70109 15.3535 6.55855 15.3535 7.50272C15.3535 8.42763 15.1897 9.27545 14.8622 10.0462C14.5539 10.817 14.1011 11.4817 13.5037 12.0405C12.9257 12.5993 12.2127 13.0329 11.3649 13.3412C10.5171 13.6495 9.56325 13.8036 8.50347 13.8036H5.00618C4.89057 13.8036 4.83276 13.8614 4.83276 13.977V20.5381C4.83276 20.7308 4.73641 20.8271 4.54373 20.8271H0.873017ZM8.24334 10.1329C9.14897 10.1329 9.85229 9.90169 10.3533 9.43924C10.8543 8.95752 11.1048 8.31201 11.1048 7.50272C11.1048 6.69343 10.8543 6.04793 10.3533 5.56621C9.85229 5.08449 9.14897 4.84363 8.24334 4.84363H5.00618C4.89057 4.84363 4.83276 4.90143 4.83276 5.01705V9.9595C4.83276 10.0751 4.89057 10.1329 5.00618 10.1329H8.24334Z" fill="#121A15"/>
<path d="M18.084 1.46195C18.084 1.26926 18.1803 1.17292 18.373 1.17292H22.0437C22.2364 1.17292 22.3328 1.26926 22.3328 1.46195V20.5381C22.3328 20.7308 22.2364 20.8271 22.0437 20.8271H18.373C18.1803 20.8271 18.084 20.7308 18.084 20.5381V1.46195Z" fill="#121A15"/>
<path d="M26.1001 1.46195C26.1001 1.26926 26.1965 1.17292 26.3891 1.17292H29.8575C30.0695 1.17292 30.2333 1.26926 30.3489 1.46195L37.2857 13.8325H37.4302V1.46195C37.4302 1.26926 37.5265 1.17292 37.7192 1.17292H40.9853C41.178 1.17292 41.2743 1.26926 41.2743 1.46195V20.5381C41.2743 20.7308 41.178 20.8271 40.9853 20.8271H37.5458C37.3338 20.8271 37.17 20.7308 37.0544 20.5381L30.0888 8.1964H29.9442V20.5381C29.9442 20.7308 29.8479 20.8271 29.6552 20.8271H26.3891C26.1965 20.8271 26.1001 20.7308 26.1001 20.5381V1.46195Z" fill="#121A15"/>
<path d="M45.0685 16.376C44.9529 16.0292 44.8566 15.692 44.7795 15.3644C44.7217 15.0368 44.6735 14.6707 44.635 14.2661C44.5965 13.8614 44.5675 13.399 44.5483 12.8787C44.529 12.3585 44.5194 11.7322 44.5194 11C44.5194 10.2678 44.529 9.64156 44.5483 9.1213C44.5675 8.60105 44.5965 8.13859 44.635 7.73395C44.6735 7.3293 44.7217 6.9632 44.7795 6.63563C44.8566 6.30806 44.9529 5.97085 45.0685 5.62401C45.5695 4.0247 46.4559 2.83003 47.7276 2.04001C49.0186 1.24999 50.5409 0.85498 52.2943 0.85498C53.2192 0.85498 54.0574 0.960959 54.8089 1.17292C55.5604 1.38487 56.2252 1.68354 56.8032 2.06892C57.4006 2.43502 57.9016 2.87821 58.3062 3.39846C58.7301 3.89945 59.0577 4.44862 59.2889 5.04595C59.3853 5.23864 59.3467 5.38315 59.1733 5.4795L56.0807 6.78014C55.8687 6.83795 55.7338 6.78978 55.676 6.63563C55.2906 5.96122 54.8282 5.46023 54.2887 5.13266C53.7684 4.78582 53.1036 4.6124 52.2943 4.6124C51.4465 4.6124 50.7625 4.81472 50.2422 5.21937C49.722 5.60474 49.3558 6.13464 49.1439 6.80905C49.0861 6.98247 49.0379 7.18479 48.9994 7.41601C48.9608 7.62797 48.9223 7.89773 48.8838 8.2253C48.8645 8.53361 48.8452 8.91898 48.826 9.38143C48.826 9.82462 48.826 10.3641 48.826 11C48.826 11.6359 48.826 12.185 48.826 12.6475C48.8452 13.11 48.8645 13.505 48.8838 13.8325C48.9223 14.1408 48.9608 14.4106 48.9994 14.6418C49.0379 14.8538 49.0861 15.0465 49.1439 15.2199C49.3558 15.8943 49.722 16.4242 50.2422 16.8096C50.7817 17.1949 51.4851 17.3876 52.3521 17.3876C53.0844 17.3876 53.7395 17.2142 54.3176 16.8674C54.8956 16.5205 55.2906 16.0195 55.5026 15.3644C55.5797 15.1139 55.6375 14.8345 55.676 14.5262C55.7146 14.2179 55.7338 13.8518 55.7338 13.4279C55.7338 13.3123 55.676 13.2545 55.5604 13.2545H52.9013C52.7086 13.2545 52.6123 13.1581 52.6123 12.9654V10.1907C52.6123 9.99804 52.7086 9.90169 52.9013 9.90169H59.6647C59.8574 9.90169 59.9537 9.99804 59.9537 10.1907V11.8093C59.9537 12.6764 59.9152 13.4953 59.8381 14.2661C59.761 15.0368 59.6358 15.692 59.4623 16.2315C58.9614 17.8115 58.075 19.0255 56.8032 19.8733C55.5508 20.7211 54.0478 21.145 52.2943 21.145C50.5409 21.145 49.0186 20.75 47.7276 19.96C46.4559 19.17 45.5695 17.9753 45.0685 16.376Z" fill="#121A15"/>
<path d="M63.1888 1.46195C63.1888 1.26926 63.2852 1.17292 63.4779 1.17292H67.1486C67.3413 1.17292 67.4376 1.26926 67.4376 1.46195V8.83227C67.4376 8.94788 67.4954 9.00569 67.611 9.00569H74.0275C74.1432 9.00569 74.201 8.94788 74.201 8.83227V1.46195C74.201 1.26926 74.2973 1.17292 74.49 1.17292H78.1607C78.3534 1.17292 78.4497 1.26926 78.4497 1.46195V20.5381C78.4497 20.7308 78.3534 20.8271 78.1607 20.8271H74.49C74.2973 20.8271 74.201 20.7308 74.201 20.5381V12.9654C74.201 12.8498 74.1432 12.792 74.0275 12.792H67.611C67.4954 12.792 67.4376 12.8498 67.4376 12.9654V20.5381C67.4376 20.7308 67.3413 20.8271 67.1486 20.8271H63.4779C63.2852 20.8271 63.1888 20.7308 63.1888 20.5381V1.46195Z" fill="#24AD53"/>
<path d="M93.0806 20.8271C92.8687 20.8271 92.7242 20.7308 92.6471 20.5381L89.2654 13.3412H86.6352C86.5196 13.3412 86.4618 13.399 86.4618 13.5146V20.5381C86.4618 20.7308 86.3654 20.8271 86.1728 20.8271H82.5021C82.3094 20.8271 82.213 20.7308 82.213 20.5381V1.46195C82.213 1.26926 82.3094 1.17292 82.5021 1.17292H90.3348C91.3368 1.17292 92.2424 1.32707 93.0517 1.63537C93.8803 1.9244 94.5836 2.33868 95.1617 2.87821C95.759 3.41773 96.2118 4.06324 96.5201 4.81472C96.8477 5.56621 97.0115 6.38513 97.0115 7.2715C97.0115 8.54324 96.7032 9.6512 96.0866 10.5954C95.47 11.5395 94.6125 12.2525 93.5142 12.7342L97.3872 20.4803C97.4258 20.5766 97.4258 20.6633 97.3872 20.7404C97.3487 20.7982 97.2812 20.8271 97.1849 20.8271H93.0806ZM90.1036 9.72827C90.9129 9.72827 91.5584 9.50668 92.0401 9.0635C92.5218 8.62032 92.7627 8.02298 92.7627 7.2715C92.7627 6.53928 92.5218 5.95158 92.0401 5.5084C91.5584 5.06522 90.9129 4.84363 90.1036 4.84363H86.6352C86.5196 4.84363 86.4618 4.90143 86.4618 5.01705V9.55485C86.4618 9.67047 86.5196 9.72827 86.6352 9.72827H90.1036Z" fill="#24AD53"/>
</svg>
