<svg width="20" height="20" viewBox="0 0 20 20" fill="none" xmlns="http://www.w3.org/2000/svg">
<g id="vuesax/outline/search-normal">
<g id="search-normal">
<g id="Vector">
<mask id="path-1-inside-1_2245_11296" fill="white">
<path d="M9.58317 18.125C4.87484 18.125 1.0415 14.2917 1.0415 9.58332C1.0415 4.87499 4.87484 1.04166 9.58317 1.04166C14.2915 1.04166 18.1248 4.87499 18.1248 9.58332C18.1248 14.2917 14.2915 18.125 9.58317 18.125ZM9.58317 2.29166C5.55817 2.29166 2.2915 5.56666 2.2915 9.58332C2.2915 13.6 5.55817 16.875 9.58317 16.875C13.6082 16.875 16.8748 13.6 16.8748 9.58332C16.8748 5.56666 13.6082 2.29166 9.58317 2.29166Z"/>
</mask>
<path d="M9.58317 18.125C4.87484 18.125 1.0415 14.2917 1.0415 9.58332C1.0415 4.87499 4.87484 1.04166 9.58317 1.04166C14.2915 1.04166 18.1248 4.87499 18.1248 9.58332C18.1248 14.2917 14.2915 18.125 9.58317 18.125ZM9.58317 2.29166C5.55817 2.29166 2.2915 5.56666 2.2915 9.58332C2.2915 13.6 5.55817 16.875 9.58317 16.875C13.6082 16.875 16.8748 13.6 16.8748 9.58332C16.8748 5.56666 13.6082 2.29166 9.58317 2.29166Z" fill="white"/>
<path d="M9.58317 16.625C5.70326 16.625 2.5415 13.4632 2.5415 9.58332H-0.458496C-0.458496 15.1201 4.04641 19.625 9.58317 19.625V16.625ZM2.5415 9.58332C2.5415 5.70342 5.70326 2.54166 9.58317 2.54166V-0.458344C4.04641 -0.458344 -0.458496 4.04656 -0.458496 9.58332H2.5415ZM9.58317 2.54166C13.4631 2.54166 16.6248 5.70342 16.6248 9.58332H19.6248C19.6248 4.04656 15.1199 -0.458344 9.58317 -0.458344V2.54166ZM16.6248 9.58332C16.6248 13.4632 13.4631 16.625 9.58317 16.625V19.625C15.1199 19.625 19.6248 15.1201 19.6248 9.58332H16.6248ZM9.58317 0.791657C4.72863 0.791657 0.791504 4.73935 0.791504 9.58332H3.7915C3.7915 6.39397 6.38771 3.79166 9.58317 3.79166V0.791657ZM0.791504 9.58332C0.791504 14.4273 4.72863 18.375 9.58317 18.375V15.375C6.38771 15.375 3.7915 12.7727 3.7915 9.58332H0.791504ZM9.58317 18.375C14.4377 18.375 18.3748 14.4273 18.3748 9.58332H15.3748C15.3748 12.7727 12.7786 15.375 9.58317 15.375V18.375ZM18.3748 9.58332C18.3748 4.73935 14.4377 0.791657 9.58317 0.791657V3.79166C12.7786 3.79166 15.3748 6.39397 15.3748 9.58332H18.3748Z" fill="white" mask="url(#path-1-inside-1_2245_11296)"/>
</g>
<g id="Vector_2">
<mask id="path-3-inside-2_2245_11296" fill="white">
<path d="M18.3335 18.9583C18.1752 18.9583 18.0169 18.9 17.8919 18.775L16.2252 17.1083C15.9835 16.8667 15.9835 16.4667 16.2252 16.225C16.4669 15.9833 16.8669 15.9833 17.1085 16.225L18.7752 17.8917C19.0169 18.1333 19.0169 18.5333 18.7752 18.775C18.6502 18.9 18.4919 18.9583 18.3335 18.9583Z"/>
</mask>
<path d="M18.3335 18.9583C18.1752 18.9583 18.0169 18.9 17.8919 18.775L16.2252 17.1083C15.9835 16.8667 15.9835 16.4667 16.2252 16.225C16.4669 15.9833 16.8669 15.9833 17.1085 16.225L18.7752 17.8917C19.0169 18.1333 19.0169 18.5333 18.7752 18.775C18.6502 18.9 18.4919 18.9583 18.3335 18.9583Z" fill="white"/>
<path d="M17.8919 18.775L16.8312 19.8357L17.8919 18.775ZM16.2252 17.1083L17.2859 16.0477L16.2252 17.1083ZM17.1085 16.225L16.0479 17.2857L17.1085 16.225ZM18.7752 17.8917L19.8359 16.831L18.7752 17.8917ZM18.3335 17.4583C18.5515 17.4583 18.7814 17.5432 18.9525 17.7144L16.8312 19.8357C17.2523 20.2568 17.7988 20.4583 18.3335 20.4583V17.4583ZM18.9525 17.7144L17.2859 16.0477L15.1645 18.169L16.8312 19.8357L18.9525 17.7144ZM17.2859 16.0477C17.63 16.3918 17.63 16.9416 17.2859 17.2857L15.1645 15.1644C14.3371 15.9918 14.3371 17.3416 15.1645 18.169L17.2859 16.0477ZM17.2859 17.2857C16.9417 17.6298 16.392 17.6298 16.0479 17.2857L18.1692 15.1644C17.3417 14.3369 15.992 14.3369 15.1645 15.1644L17.2859 17.2857ZM16.0479 17.2857L17.7145 18.9523L19.8359 16.831L18.1692 15.1644L16.0479 17.2857ZM17.7145 18.9523C17.3704 18.6082 17.3704 18.0585 17.7145 17.7144L19.8359 19.8357C20.6633 19.0082 20.6633 17.6585 19.8359 16.831L17.7145 18.9523ZM17.7145 17.7144C17.8857 17.5432 18.1155 17.4583 18.3335 17.4583V20.4583C18.8682 20.4583 19.4147 20.2568 19.8359 19.8357L17.7145 17.7144Z" fill="white" mask="url(#path-3-inside-2_2245_11296)"/>
</g>
</g>
</g>
</svg>
