<svg width="24" height="24" viewBox="0 0 24 24" fill="none" xmlns="http://www.w3.org/2000/svg">
<mask id="path-1-inside-1_2020_935" fill="white">
<path d="M6.87988 18.9001C6.46988 18.9001 6.12988 18.5601 6.12988 18.1501V16.0801C6.12988 15.6701 6.46988 15.3301 6.87988 15.3301C7.28988 15.3301 7.62988 15.6701 7.62988 16.0801V18.1501C7.62988 18.5701 7.28988 18.9001 6.87988 18.9001Z"/>
</mask>
<path d="M6.87988 18.9001C6.46988 18.9001 6.12988 18.5601 6.12988 18.1501V16.0801C6.12988 15.6701 6.46988 15.3301 6.87988 15.3301C7.28988 15.3301 7.62988 15.6701 7.62988 16.0801V18.1501C7.62988 18.5701 7.28988 18.9001 6.87988 18.9001Z" fill="#121A15"/>
<path d="M6.87988 17.4001C7.29831 17.4001 7.62988 17.7317 7.62988 18.1501H4.62988C4.62988 19.3885 5.64146 20.4001 6.87988 20.4001V17.4001ZM7.62988 18.1501V16.0801H4.62988V18.1501H7.62988ZM7.62988 16.0801C7.62988 16.4985 7.29831 16.8301 6.87988 16.8301V13.8301C5.64146 13.8301 4.62988 14.8417 4.62988 16.0801H7.62988ZM6.87988 16.8301C6.46146 16.8301 6.12988 16.4985 6.12988 16.0801H9.12988C9.12988 14.8417 8.11831 13.8301 6.87988 13.8301V16.8301ZM6.12988 16.0801V18.1501H9.12988V16.0801H6.12988ZM6.12988 18.1501C6.12988 17.7286 6.47452 17.4001 6.87988 17.4001V20.4001C8.10525 20.4001 9.12988 19.4115 9.12988 18.1501H6.12988Z" fill="#121A15" mask="url(#path-1-inside-1_2020_935)"/>
<mask id="path-3-inside-2_2020_935" fill="white">
<path d="M12 18.9C11.59 18.9 11.25 18.56 11.25 18.15V14C11.25 13.59 11.59 13.25 12 13.25C12.41 13.25 12.75 13.59 12.75 14V18.15C12.75 18.57 12.41 18.9 12 18.9Z"/>
</mask>
<path d="M12 18.9C11.59 18.9 11.25 18.56 11.25 18.15V14C11.25 13.59 11.59 13.25 12 13.25C12.41 13.25 12.75 13.59 12.75 14V18.15C12.75 18.57 12.41 18.9 12 18.9Z" fill="#121A15"/>
<path d="M12 17.4C12.4184 17.4 12.75 17.7316 12.75 18.15H9.75C9.75 19.3884 10.7616 20.4 12 20.4V17.4ZM12.75 18.15V14H9.75V18.15H12.75ZM12.75 14C12.75 14.4184 12.4184 14.75 12 14.75V11.75C10.7616 11.75 9.75 12.7616 9.75 14H12.75ZM12 14.75C11.5816 14.75 11.25 14.4184 11.25 14H14.25C14.25 12.7616 13.2384 11.75 12 11.75V14.75ZM11.25 14V18.15H14.25V14H11.25ZM11.25 18.15C11.25 17.7286 11.5946 17.4 12 17.4V20.4C13.2254 20.4 14.25 19.4114 14.25 18.15H11.25Z" fill="#121A15" mask="url(#path-3-inside-2_2020_935)"/>
<path d="M17.1201 18.8999C16.7101 18.8999 16.3701 18.5599 16.3701 18.1499V11.9299C16.3701 11.5199 16.7101 11.1799 17.1201 11.1799C17.5301 11.1799 17.8701 11.5199 17.8701 11.9299V18.1499C17.8701 18.5699 17.5401 18.8999 17.1201 18.8999Z" fill="#121A15"/>
<path d="M6.88007 13.1799C6.54007 13.1799 6.24007 12.9499 6.15007 12.6099C6.05007 12.2099 6.29007 11.7999 6.70007 11.6999C10.3801 10.7799 13.6201 8.76992 16.0901 5.89992L16.5501 5.35992C16.8201 5.04992 17.2901 5.00992 17.6101 5.27992C17.9201 5.54992 17.9601 6.01992 17.6901 6.33992L17.2301 6.87992C14.5601 9.99992 11.0401 12.1699 7.06007 13.1599C7.00007 13.1799 6.94007 13.1799 6.88007 13.1799Z" fill="#121A15"/>
<path d="M17.1199 9.5201C16.7099 9.5201 16.3699 9.1801 16.3699 8.7701V6.6001H14.1899C13.7799 6.6001 13.4399 6.2601 13.4399 5.8501C13.4399 5.4401 13.7799 5.1001 14.1899 5.1001H17.1199C17.5299 5.1001 17.8699 5.4401 17.8699 5.8501V8.7801C17.8699 9.1901 17.5399 9.5201 17.1199 9.5201Z" fill="#121A15"/>
<path d="M15 22.75H9C3.57 22.75 1.25 20.43 1.25 15V9C1.25 3.57 3.57 1.25 9 1.25H15C20.43 1.25 22.75 3.57 22.75 9V15C22.75 20.43 20.43 22.75 15 22.75ZM9 2.75C4.39 2.75 2.75 4.39 2.75 9V15C2.75 19.61 4.39 21.25 9 21.25H15C19.61 21.25 21.25 19.61 21.25 15V9C21.25 4.39 19.61 2.75 15 2.75H9Z" fill="#121A15"/>
</svg>
