<svg width="24" height="24" viewBox="0 0 24 24" fill="none" xmlns="http://www.w3.org/2000/svg">
<mask id="path-1-inside-1_2020_3116" fill="white">
<path d="M17.62 9.62H12.37C11.96 9.62 11.62 9.28 11.62 8.87C11.62 8.46 11.96 8.12 12.37 8.12H17.62C18.03 8.12 18.37 8.46 18.37 8.87C18.37 9.28 18.04 9.62 17.62 9.62Z"/>
</mask>
<path d="M17.62 9.62H12.37C11.96 9.62 11.62 9.28 11.62 8.87C11.62 8.46 11.96 8.12 12.37 8.12H17.62C18.03 8.12 18.37 8.46 18.37 8.87C18.37 9.28 18.04 9.62 17.62 9.62Z" fill="#121A15"/>
<path d="M17.62 8.12H12.37V11.12H17.62V8.12ZM12.37 8.12C12.7884 8.12 13.12 8.45157 13.12 8.87H10.12C10.12 10.1084 11.1316 11.12 12.37 11.12V8.12ZM13.12 8.87C13.12 9.28842 12.7884 9.62 12.37 9.62V6.62C11.1316 6.62 10.12 7.63157 10.12 8.87H13.12ZM12.37 9.62H17.62V6.62H12.37V9.62ZM17.62 9.62C17.2016 9.62 16.87 9.28842 16.87 8.87H19.87C19.87 7.63157 18.8584 6.62 17.62 6.62V9.62ZM16.87 8.87C16.87 8.46463 17.1986 8.12 17.62 8.12V11.12C18.8814 11.12 19.87 10.0954 19.87 8.87H16.87Z" fill="#121A15" mask="url(#path-1-inside-1_2020_3116)"/>
<mask id="path-3-inside-2_2020_3116" fill="white">
<path d="M7.12 10.38C6.93 10.38 6.74 10.31 6.59 10.16L5.84 9.41001C5.55 9.12001 5.55 8.64001 5.84 8.35001C6.13 8.06001 6.61 8.06001 6.9 8.35001L7.12 8.57001L8.84 6.85001C9.13 6.56001 9.61 6.56001 9.9 6.85001C10.19 7.14001 10.19 7.62001 9.9 7.91001L7.65 10.16C7.51 10.3 7.32 10.38 7.12 10.38Z"/>
</mask>
<path d="M7.12 10.38C6.93 10.38 6.74 10.31 6.59 10.16L5.84 9.41001C5.55 9.12001 5.55 8.64001 5.84 8.35001C6.13 8.06001 6.61 8.06001 6.9 8.35001L7.12 8.57001L8.84 6.85001C9.13 6.56001 9.61 6.56001 9.9 6.85001C10.19 7.14001 10.19 7.62001 9.9 7.91001L7.65 10.16C7.51 10.3 7.32 10.38 7.12 10.38Z" fill="#121A15"/>
<path d="M6.59 10.16L5.52934 11.2207L6.59 10.16ZM5.84 9.41001L6.90066 8.34935L5.84 9.41001ZM6.9 8.35001L5.83934 9.41067L5.83934 9.41067L6.9 8.35001ZM7.12 8.57001L6.05934 9.63067L7.12 10.6913L8.18066 9.63067L7.12 8.57001ZM8.84 6.85001L9.90066 7.91067V7.91067L8.84 6.85001ZM9.9 7.91001L8.83934 6.84935V6.84935L9.9 7.91001ZM7.65 10.16L8.71066 11.2207L7.65 10.16ZM7.12 8.88001C7.30636 8.88001 7.50453 8.95322 7.65066 9.09935L5.52934 11.2207C5.97547 11.6668 6.55364 11.88 7.12 11.88V8.88001ZM7.65066 9.09935L6.90066 8.34935L4.77934 10.4707L5.52934 11.2207L7.65066 9.09935ZM6.90066 8.34935C7.19645 8.64513 7.19645 9.11488 6.90066 9.41067L4.77934 7.28935C3.90355 8.16513 3.90355 9.59488 4.77934 10.4707L6.90066 8.34935ZM6.90066 9.41067C6.60488 9.70645 6.13513 9.70645 5.83934 9.41067L7.96066 7.28935C7.08487 6.41356 5.65513 6.41356 4.77934 7.28935L6.90066 9.41067ZM5.83934 9.41067L6.05934 9.63067L8.18066 7.50935L7.96066 7.28935L5.83934 9.41067ZM8.18066 9.63067L9.90066 7.91067L7.77934 5.78935L6.05934 7.50935L8.18066 9.63067ZM9.90066 7.91067C9.60488 8.20645 9.13513 8.20645 8.83934 7.91067L10.9607 5.78935C10.0849 4.91356 8.65513 4.91356 7.77934 5.78935L9.90066 7.91067ZM8.83934 7.91067C8.54355 7.61488 8.54355 7.14513 8.83934 6.84935L10.9607 8.97067C11.8364 8.09488 11.8364 6.66513 10.9607 5.78935L8.83934 7.91067ZM8.83934 6.84935L6.58934 9.09935L8.71066 11.2207L10.9607 8.97067L8.83934 6.84935ZM6.58934 9.09935C6.72743 8.96125 6.91766 8.88001 7.12 8.88001V11.88C7.72234 11.88 8.29257 11.6388 8.71066 11.2207L6.58934 9.09935Z" fill="#121A15" mask="url(#path-3-inside-2_2020_3116)"/>
<path d="M17.62 16.62H12.37C11.96 16.62 11.62 16.28 11.62 15.87C11.62 15.46 11.96 15.12 12.37 15.12H17.62C18.03 15.12 18.37 15.46 18.37 15.87C18.37 16.28 18.04 16.62 17.62 16.62Z" fill="#121A15"/>
<path d="M7.12 17.38C6.93 17.38 6.74 17.31 6.59 17.16L5.84 16.41C5.55 16.12 5.55 15.64 5.84 15.35C6.13 15.06 6.61 15.06 6.9 15.35L7.12 15.57L8.84 13.85C9.13 13.56 9.61 13.56 9.9 13.85C10.19 14.14 10.19 14.62 9.9 14.91L7.65 17.16C7.51 17.3 7.32 17.38 7.12 17.38Z" fill="#121A15"/>
<path d="M15 22.75H9C3.57 22.75 1.25 20.43 1.25 15V9C1.25 3.57 3.57 1.25 9 1.25H15C20.43 1.25 22.75 3.57 22.75 9V15C22.75 20.43 20.43 22.75 15 22.75ZM9 2.75C4.39 2.75 2.75 4.39 2.75 9V15C2.75 19.61 4.39 21.25 9 21.25H15C19.61 21.25 21.25 19.61 21.25 15V9C21.25 4.39 19.61 2.75 15 2.75H9Z" fill="#121A15"/>
</svg>
